<?xml version="1.0" encoding="UTF-8"?>
<svg xmlns="http://www.w3.org/2000/svg" width="215.52pt"
  height="168.12pt" viewBox="0 0 215.52 168.12" version="1.1">
  <defs>
    <clipPath id="clip1">
      <path d="M 0 0 L 215.519531 0 L 215.519531 168.121094 L 0 168.121094 Z M 0 0 "/>
    </clipPath>
  </defs>
  <g id="surface1">
    <g clip-path="url(#clip1)" clip-rule="nonzero">
      <path style=" stroke:none;fill-rule:evenodd;fill:rgb(100%,100%,100%);fill-opacity:0;"
        d="M 0 168.125 L 215.5 168.125 L 215.5 -0.00390625 L 0 -0.00390625 Z M 0 168.125 "/>
      <rect x="0" y="0" width="215.52" height="168.12" style="fill-opacity:0;stroke:none;"/>
      <path
        style=" stroke:none;fill-rule:evenodd;fill:rgb(55.699158%,70.599365%,88.999939%);fill-opacity:0;"
        d="M 0 168.125 L 215.5 168.125 L 215.5 -0.00390625 L 0 -0.00390625 Z M 0 168.125 "/>
    </g>
    <path style=" stroke:none;fill-rule:evenodd;fill:rgb(100%,100%,100%);fill-opacity:1;"
      d="M 21.894531 65.199219 L 129.398438 65.199219 C 113.558594 73.425781 102.859375 90.003906 102.859375 109.082031 C 102.859375 110.261719 102.898438 111.429688 103.21875 112.570313 L 21.894531 112.570313 Z M 135.140625 45.230469 L 141.5 60.519531 C 137.171875 61.410156 133.089844 62.960938 129.398438 65.199219 L 108.410156 65.199219 Z M 100.101563 45.230469 L 108.410156 65.199219 L 73.359375 65.199219 Z M 21.894531 21.539063 L 38.910156 21.539063 L 38.910156 64.761719 L 65.050781 45.230469 L 73.359375 65.199219 L 21.894531 65.199219 Z M 21.894531 21.539063 "/>
    <path style=" stroke:none;fill-rule:evenodd;fill:rgb(100%,100%,100%);fill-opacity:1;"
      d="M 161.570313 96.414063 L 151.160156 108.25 L 153.929688 110.683594 L 164.339844 98.851563 Z M 152.921875 90.152344 C 163.371094 90.152344 171.839844 98.628906 171.839844 109.082031 C 171.839844 119.535156 163.371094 128.011719 152.921875 128.011719 C 142.460938 128.011719 133.988281 119.535156 133.988281 109.082031 C 133.988281 98.628906 142.460938 90.152344 152.921875 90.152344 Z M 168.328125 78.679688 L 164.890625 83.246094 L 173.730469 89.902344 L 177.171875 85.335938 Z M 137.519531 78.679688 L 128.640625 85.28125 L 132.050781 89.871094 L 140.929688 83.265625 Z M 145.519531 75.683594 L 145.519531 81.65625 L 151.070313 81.65625 L 151.070313 85.175781 C 138.621094 86.003906 128.820313 96.398438 128.820313 109.082031 C 128.820313 122.386719 139.609375 133.175781 152.921875 133.175781 C 166.21875 133.175781 177.011719 122.386719 177.011719 109.082031 C 177.011719 96.398438 167.210938 86.003906 154.761719 85.175781 L 154.761719 81.65625 L 160.308594 81.65625 L 160.308594 75.683594 Z M 152.921875 66.269531 C 176.558594 66.269531 195.730469 85.433594 195.730469 109.082031 C 195.730469 132.730469 176.558594 151.898438 152.921875 151.898438 C 129.269531 151.898438 110.101563 132.730469 110.101563 109.082031 C 110.101563 85.433594 129.269531 66.269531 152.921875 66.269531 Z M 152.921875 66.269531 "/>
    <path
      style="fill:none;stroke-width:6;stroke-linecap:butt;stroke-linejoin:round;stroke:rgb(100%,100%,100%);stroke-opacity:1;stroke-miterlimit:10;"
      d="M 6.011719 136.971563 C 6.011719 151.580938 17.855469 163.428594 32.46875 163.428594 L 183.03125 163.428594 C 197.640625 163.428594 209.488281 151.580938 209.488281 136.971563 L 209.488281 31.143438 C 209.488281 16.534063 197.640625 4.686406 183.03125 4.686406 L 32.46875 4.686406 C 17.855469 4.686406 6.011719 16.534063 6.011719 31.143438 Z M 6.011719 136.971563 "
      transform="matrix(1,0,0,-1,0,168.12)"/>
  </g>
</svg>
