<?xml version="1.0" encoding="UTF-8"?>
<svg height="1077.24pt" version="1.1" viewBox="0 0 2551.56 1077.24" width="2551.56pt"
     xmlns="http://www.w3.org/2000/svg" xmlns:xlink="http://www.w3.org/1999/xlink">
  <defs>
    <clipPath id="clip1">
      <path d="M 0 0 L 2551.558594 0 L 2551.558594 1077.238281 L 0 1077.238281 Z M 0 0 "/>
    </clipPath>
  </defs>
  <g id="surface1">
    <g clip-path="url(#clip1)" clip-rule="nonzero">
      <path d="M 0 1077.25 L 2551.5 1077.25 L 2551.5 0 L 0 0 Z M 0 1077.25 "
            style=" stroke:none;fill-rule:evenodd;fill:rgb(100%,100%,100%);fill-opacity:0;"/>
    </g>
    <path d="M 1823.300781 330.441406 L 1823.300781 563.308594 L 2169.359375 563.308594 C 2213.960938 563.308594 2250.121094 527.160156 2250.121094 482.578125 L 2250.121094 411.171875 C 2250.121094 366.578125 2213.960938 330.441406 2169.359375 330.441406 Z M 1823.300781 124.691406 L 2251.53125 124.691406 C 2380.988281 124.691406 2485.941406 229.601563 2485.941406 359.019531 L 2485.941406 536.179688 C 2485.941406 665.601563 2380.988281 770.511719 2251.53125 770.511719 L 1823.300781 770.511719 L 1823.300781 952.21875 L 1568.160156 538.449219 Z M 1823.300781 124.691406 "
          style=" stroke:none;fill-rule:evenodd;fill:rgb(100%,100%,100%);fill-opacity:1;"/>
    <path d="M 815.121094 124.691406 L 1115.609375 124.691406 L 1287.410156 400.230469 L 1459.210938 124.691406 L 1759.710938 124.691406 L 1501.71875 538.449219 L 1759.710938 952.21875 L 1459.210938 952.21875 L 1287.410156 676.679688 L 1115.609375 952.21875 L 815.121094 952.21875 L 1073.109375 538.449219 Z M 815.121094 124.691406 "
          style=" stroke:none;fill-rule:evenodd;fill:rgb(100%,100%,100%);fill-opacity:1;"/>
    <path d="M 751.160156 124.351563 L 1006.199219 538.128906 L 751.03125 951.988281 L 324.921875 458.300781 L 324.839844 952.519531 L 70.011719 952.558594 L 70.144531 124.921875 L 324.980469 124.871094 L 751.078125 615.570313 Z M 751.160156 124.351563 "
          style=" stroke:none;fill-rule:evenodd;fill:rgb(100%,100%,100%);fill-opacity:1;"/>
  </g>
</svg>
