<svg enable-background="new 0 212 612 372" viewBox="0 212 612 372" xmlns="http://www.w3.org/2000/svg">
  <g fill="#FFFFFF">
    <path
      d="M538.3 379.3c-1 9.1-6.1 17.2-12.1 20.2-5.1 2-14.1 1-22.2 1h-68.7v-54.6c0-1 0-2 1-2h54.6c18.2 0 38.4-2 45.5 8.1 2.9 7.1 2.9 20.2 1.9 27.3m41.4-67.7c-24.3-24.3-98-16.2-144.5-17.2-21.2 33.4-41.4 66.7-61.6 101.1 15.2 24.3 31.3 50.5 46.5 75.8 4 7.1 9.1 16.2 13.1 22.2 0 0 1 3 2 1V451h55.6c20.2 0 39.4 1 55.6 0 30.3-3 46.5-26.3 48.5-57.6 3-33.3 1-66.7-15.2-81.8M177.5 296.4v-1h-1v119.3c-29.3-33.4-61.6-71.8-91-106.1-3-2-10.1-11.1-13.1-13.1H10.7c-1 65.7 0 133.4-1 200.1h61.6V374.2c26.3 29.3 52.6 59.6 77.8 89.9 9.1 10.1 17.2 20.2 26.3 30.3 20.2-33.4 41.4-66.7 60.6-100.1-9.1-16.2-20.2-33.4-31.3-50.5-8-15.1-17.1-33.2-27.2-47.4M420.1 295.4h-72.8c-15.2 21.2-27.3 44.5-41.4 65.7-10.1-17.2-21.2-33.4-31.3-49.5-3-5.1-6.1-11.1-10.1-15.2h-72.8c21.2 33.4 41.4 66.7 61.6 100.1-11.1 16.2-20.2 33.4-30.3 49.5-10.1 16.2-21.2 32.3-30.3 50.5h71.8c15.2-21.2 27.3-44.5 42.4-66.7 10.1 16.2 20.2 33.4 31.3 50.5 2 3 8.1 15.2 11.1 16.2 4 1 12.1 0 17.2 0h54.6c-20.2-34.4-41.4-66.7-60.6-101.1 18.1-34.3 39.3-66.7 59.6-100"/>
  </g>
</svg>
